<svg width="281" height="64" viewBox="0 0 281 64" fill="none" xmlns="http://www.w3.org/2000/svg">
<path fillRule="evenodd" clipRule="evenodd" d="M34.2408 8.98384C41.5015 26.198 40.4869 45.9182 31.187 56.3084C25.7998 62.3271 14.7853 66.5376 7.21347 62.25C0.875993 58.6602 -2.62078 50.4507 2.37413 43.0128C6.12453 37.4302 11.6199 36.4338 16.9226 33.0118C25.81 27.2782 30.9841 18.8305 34.2408 8.98048V8.98384Z" fill="#2F789B"/>
<path fillRule="evenodd" clipRule="evenodd" d="M35.9452 13.5264C35.4853 14.9187 35.0321 16.3143 34.5451 17.6966C31.7247 25.7216 27.3284 32.5992 19.9966 37.3296C15.4312 40.2752 10.7001 41.1307 7.47387 45.9383C3.17223 52.3395 6.18541 59.4084 11.6402 62.4949C13.02 63.2766 14.5351 63.7295 16.1076 63.9073H16.1008C15.1302 64.0046 14.1631 64.0247 13.2128 63.9644H13.1722C13.0843 63.9543 12.9997 63.9476 12.9118 63.9409L12.7698 63.9274H12.7292L12.4857 63.8973L12.3437 63.8805H12.3301C12.2456 63.8704 12.161 63.8603 12.0799 63.8469L11.9108 63.8234L11.6876 63.7899C11.5963 63.7765 11.505 63.7597 11.417 63.7429L11.3528 63.7295C11.2513 63.7127 11.1533 63.6926 11.0552 63.6691L10.9402 63.6456C10.8388 63.6255 10.7373 63.5987 10.6358 63.5752L10.5513 63.555C10.4634 63.5349 10.3721 63.5114 10.2841 63.488L10.1286 63.4443C10.0339 63.4175 9.94258 63.3907 9.84789 63.3638L9.77349 63.3403C9.66865 63.3068 9.56382 63.2732 9.46236 63.2397L9.40825 63.2229C9.29666 63.186 9.18506 63.1458 9.07684 63.1055L9.03964 63.0921C8.93142 63.0518 8.82659 63.0116 8.71837 62.9679L8.63044 62.931C8.52561 62.8874 8.42077 62.8438 8.31594 62.7968L8.30241 62.7901C8.18405 62.7364 8.06907 62.6828 7.9507 62.6291L7.92027 62.6157C7.68354 62.5016 7.4502 62.3775 7.21685 62.2466C4.93752 60.9583 3.02681 59.0695 1.74511 56.8385C1.691 56.7412 1.63351 56.6439 1.58279 56.5466C1.52868 56.446 1.47795 56.3487 1.42722 56.248C1.3765 56.1474 1.32577 56.0501 1.27843 55.9494C1.23108 55.8488 1.18374 55.7481 1.13639 55.6441C1.08905 55.5401 1.04508 55.4395 1.00112 55.3355C0.957155 55.2315 0.916574 55.1275 0.875992 55.0235C0.304469 53.5674 -0.00665559 52.004 0.000107999 50.3937C0.000107999 50.2796 0.000107999 50.1655 0.00687158 50.0481C0.00687158 49.9307 0.017017 49.8166 0.0237805 49.6992C0.115089 48.1928 0.487086 46.6496 1.1905 45.1197C1.24461 45.0023 1.29872 44.8849 1.35621 44.7675C1.4137 44.65 1.47457 44.5326 1.53544 44.4152C1.59631 44.2978 1.66057 44.1804 1.7282 44.0629C1.79584 43.9455 1.86009 43.8281 1.93111 43.7107C2.00213 43.5932 2.07315 43.4758 2.14755 43.3618C2.22195 43.2443 2.29634 43.1303 2.37413 43.0128C2.43162 42.9256 2.49249 42.8384 2.55336 42.7545C2.61423 42.6673 2.67172 42.5868 2.7326 42.5029C2.79347 42.419 2.85434 42.3385 2.91521 42.258C2.97609 42.1775 3.03696 42.097 3.09783 42.0198C4.89356 39.7384 7.02071 38.3059 9.30342 37.0746L9.54014 36.9471L9.77687 36.823L10.7373 36.3265L11.9547 35.7226L12.4485 35.481L12.9422 35.2328C14.2611 34.5718 15.6003 33.8673 16.926 33.0118C18.5932 31.9349 20.1285 30.764 21.5455 29.5093C21.6639 29.4053 21.7822 29.2979 21.8972 29.1939C22.0156 29.0865 22.1272 28.9825 22.2455 28.8752C22.3605 28.7678 22.4755 28.6605 22.5871 28.5531C22.7021 28.4458 22.8137 28.335 22.9253 28.2277C23.0369 28.117 23.1485 28.0096 23.2567 27.8955C23.3683 27.7848 23.4765 27.6741 23.5847 27.5601C23.6929 27.4493 23.8012 27.3353 23.9094 27.2246C24.0176 27.1105 24.1224 26.9964 24.2273 26.8857C24.3321 26.7717 24.4369 26.6576 24.5418 26.5402C24.6466 26.4261 24.7481 26.3087 24.8495 26.1912C24.951 26.0738 25.0524 25.9598 25.1539 25.839C25.2553 25.7216 25.3534 25.6041 25.4549 25.4867C27.6395 22.8799 29.4657 20.0081 31.0044 16.9317C31.0754 16.7907 31.143 16.6498 31.2141 16.5089C31.2817 16.368 31.3493 16.2271 31.417 16.0862C31.4846 15.9453 31.5522 15.801 31.6199 15.6601C31.6875 15.5192 31.7518 15.375 31.816 15.2307C31.8803 15.0864 31.9479 14.9422 32.0122 14.7979C32.0764 14.6537 32.1407 14.5094 32.2015 14.3651C32.2658 14.2209 32.3267 14.0733 32.3909 13.929C32.4518 13.7847 32.516 13.6371 32.5735 13.4895L32.7528 13.05C32.8136 12.9024 32.8711 12.7548 32.932 12.6072C32.9895 12.4595 33.0504 12.3086 33.1079 12.1609L33.2803 11.7147C33.3378 11.5638 33.3919 11.4162 33.4494 11.2652C33.5035 11.1142 33.561 10.9632 33.6151 10.8123L33.7775 10.356L33.9364 9.89973L34.092 9.44011L34.2441 8.98048C34.8765 10.4801 35.4413 11.9966 35.9486 13.523L35.9452 13.5264Z" fill="#155773"/>
<path fillRule="evenodd" clipRule="evenodd" d="M68.5017 40.4899C53.2803 39.6378 39.1511 31.9147 34.8123 21.5078C32.2996 15.479 33.1079 6.02479 38.9415 2.06598C43.8248 -1.24533 51.0956 -0.866225 54.7919 5.384C57.565 10.0742 56.3475 14.3987 56.9833 19.4512C58.0486 27.9123 62.4212 34.6457 68.5017 40.4899Z" fill="#ADDEE3"/>
<path fillRule="evenodd" clipRule="evenodd" d="M68.5017 40.4899C66.476 40.3759 64.4672 40.141 62.5024 39.7921C57.7104 34.9912 54.2948 29.4757 53.4324 22.625C52.8947 18.3374 53.9262 14.6671 51.5724 10.6814C48.4375 5.37729 42.2624 5.05522 38.1163 7.86665C35.3838 9.71856 33.9499 12.9963 33.5712 16.4183C33.0301 11.0471 34.5857 5.01831 38.9415 2.06262C43.8248 -1.24869 51.0956 -0.86958 54.7919 5.38065C57.565 10.0708 56.3475 14.3953 56.9833 19.4478C58.0486 27.909 62.4212 34.6423 68.5017 40.4866V40.4899Z" fill="#84C2CE"/>
<path fillRule="evenodd" clipRule="evenodd" d="M85.2348 54.0774C77.7644 42.0231 65.0793 33.9176 54.518 34.9979C48.4003 35.6253 40.913 40.4866 40.2232 47.0086C39.6449 52.467 43.1924 58.2375 50.0168 58.4757C55.1402 58.6569 58.1906 55.7414 62.6613 54.017C70.1554 51.1284 77.6866 51.7055 85.2382 54.074L85.2348 54.0774Z" fill="#BDCC3B"/>
<path fillRule="evenodd" clipRule="evenodd" d="M80.179 47.3508C72.7695 39.1446 62.9657 34.1324 54.518 34.9979C48.4003 35.6253 40.913 40.4866 40.2232 47.0086C39.8004 50.9909 41.5759 55.1375 45.2147 57.184C44.0716 55.2181 43.588 52.8763 43.8281 50.5883C44.518 44.0663 52.0053 39.2016 58.123 38.5776C65.2586 37.8463 73.3681 41.3119 80.179 47.3541V47.3508Z" fill="#889D35"/></svg>

