<svg width="22" height="22" viewBox="0 0 22 22" fill="none" xmlns="http://www.w3.org/2000/svg">
<path fill-rule="evenodd" clip-rule="evenodd" d="M14.2802 19.371C14.7796 18.601 15.2801 17.611 15.6398 16.3405C16.4703 16.6595 17.0401 17.0401 17.3899 17.3404C16.4938 18.2305 15.4204 18.9219 14.2395 19.3699H14.2802V19.371ZM4.6002 17.3305C4.9698 17.0302 5.5297 16.6595 6.3602 16.3295C6.7298 17.6099 7.2105 18.5999 7.7198 19.3699C6.55636 18.9123 5.50077 18.2178 4.62 17.3305H4.6002ZM16.2998 10.0001C16.269 9.1091 16.1788 8.2192 16.0303 7.3403C17.1303 6.9399 17.93 6.4603 18.4899 6.0203C19.2707 7.21544 19.7542 8.58002 19.9001 10.0001H16.2998ZM6.4295 5.3801C5.84742 5.16564 5.29888 4.86933 4.8004 4.5001C5.64346 3.69385 6.6349 3.05879 7.7198 2.6301C7.2501 3.3297 6.7903 4.2295 6.4196 5.3801H6.4306H6.4295ZM14.2802 2.6301C15.3658 3.05741 16.3575 3.69264 17.1996 4.5001C16.7005 4.8684 16.1521 5.16464 15.5705 5.3801C15.2724 4.40538 14.8344 3.47906 14.2703 2.6301H14.2802ZM14.08 7.8298C14.179 8.4898 14.2802 9.2004 14.3 10.0001H7.7C7.7297 9.2004 7.799 8.4799 7.9002 7.8298C9.9407 8.1972 12.0296 8.1972 14.0701 7.8298H14.08ZM11 6.0995C9.999 6.0995 9.119 6.0203 8.371 5.9004C9.1696 3.4397 10.4104 2.4497 11 2.0999C11.5698 2.4497 12.8205 3.4496 13.6202 5.9004C12.7535 6.03613 11.8773 6.10271 11 6.0995ZM3.5002 6.0203C4.24794 6.58881 5.08158 7.03441 5.9697 7.3403C5.82125 8.21998 5.73122 9.10852 5.7002 10.0001H2.0592C2.21714 8.57645 2.71473 7.21156 3.5101 6.0203H3.5002ZM2.0702 11.9999H5.7002C5.7398 12.8601 5.7992 13.6499 5.9202 14.3704C4.99888 14.6868 4.13922 15.1602 3.3792 15.7696C2.65994 14.6289 2.20863 13.3401 2.0592 11.9999H2.0702ZM11 13.6004C9.801 13.6004 8.7703 13.6994 7.8705 13.86C7.78259 13.2436 7.72568 12.6231 7.7 12.001H14.3C14.2703 12.6698 14.2197 13.299 14.1405 13.86C13.1043 13.6727 12.0529 13.5825 11 13.5905V13.6004ZM11 19.9001C10.4005 19.5404 9.0805 18.4701 8.2797 15.8004C9.17883 15.6539 10.0891 15.5869 11 15.6002C12.0505 15.6002 12.9503 15.6695 13.7302 15.8004C12.9305 18.4998 11.6105 19.5404 11.0099 19.9001H11ZM18.6197 15.7597C17.8606 15.1495 17.0012 14.6761 16.0798 14.3605C16.2003 13.5788 16.2738 12.7905 16.2998 11.9999H19.9408C19.7899 13.3367 19.3376 14.622 18.6197 15.7597ZM11 0C4.9247 0 0 4.9247 0 11C0 17.0753 4.9247 22 11 22C17.0753 22 22 17.0753 22 11C22 4.9247 17.0753 0 11 0Z" fill="white"/>
</svg>
