<svg width="23" height="24" viewBox="0 0 23 24" fill="none" xmlns="http://www.w3.org/2000/svg">
<path id="Vetor Telefone" d="M1 4.05556C1 14.5183 9.09619 23 19.0833 23C19.5339 23 19.9806 22.9828 20.423 22.9488C20.9306 22.9098 21.1844 22.8904 21.4155 22.751C21.6068 22.6357 21.7882 22.4311 21.8841 22.2227C22 21.9711 22 21.6777 22 21.0909V17.6475C22 17.154 22 16.9072 21.9224 16.6958C21.8541 16.5089 21.7427 16.3426 21.5985 16.2113C21.4353 16.0627 21.2139 15.9783 20.7713 15.8097L17.03 14.3844C16.5149 14.1883 16.2573 14.0901 16.013 14.1067C15.7975 14.1214 15.5902 14.1985 15.4141 14.3293C15.2143 14.4776 15.0734 14.7237 14.7914 15.2162L13.8333 16.8889C10.7418 15.4221 8.23555 12.7931 6.83333 9.55556L8.43007 8.55189C8.90003 8.25649 9.135 8.10879 9.27657 7.89952C9.4014 7.71499 9.47502 7.49778 9.48902 7.27208C9.50488 7.01611 9.4112 6.74631 9.22395 6.20673L7.86349 2.28726C7.7025 1.82348 7.62201 1.59159 7.48016 1.42057C7.35485 1.26949 7.19604 1.15296 7.01769 1.08122C6.81579 1 6.58026 1 6.10921 1H2.82234C2.26219 1 1.98211 1 1.74198 1.12131C1.54308 1.22178 1.34783 1.4119 1.23765 1.61237C1.10463 1.85442 1.08604 2.12031 1.04887 2.65211C1.01648 3.1155 1 3.58351 1 4.05556Z" stroke="white" strokeWidth="2" strokeLinecap="round" strokeLinejoin="round"/>
</svg>
